<svg xmlns="http://www.w3.org/2000/svg" xmlns:xlink="http://www.w3.org/1999/xlink" width="185" height="234" viewBox="13.4975586 9 185 234"><title>Coritiba Foot Ball Club</title><defs><clipPath id="X1"><use xlink:href="#X2"/></clipPath><rect id="X2" width="212" height="254"/></defs><g fill="#00544D">
<path clip-path="url(#X1)" d="M106,242.31c50.814,0,92.041-41.177,92.041-91.94,0-50.714-41.227-91.89-92.041-91.89s-92.042,41.176-92.042,91.89c-0.002,50.77,41.225,91.94,92.042,91.94"/><path fill="#FFF" clip-path="url(#X1)" d="M106,238.58c48.695,0,88.206-39.511,88.206-88.206,0-48.645-39.511-88.156-88.206-88.156-48.694,0-88.206,39.511-88.206,88.156-0.002,48.7,39.509,88.21,88.206,88.21"/><path clip-path="url(#X1)" d="M106,235.1c46.777,0,84.674-37.946,84.674-84.724,0-46.728-37.896-84.624-84.674-84.624s-84.674,37.896-84.674,84.624c-0.002,46.77,37.894,84.72,84.674,84.72"/><path fill="#FFF" clip-path="url(#X1)" d="M106,212.74c34.415,0,62.37-27.905,62.37-62.37,0-34.415-27.955-62.32-62.37-62.32-34.414,0-62.37,27.905-62.37,62.32-0.003,34.47,27.953,62.37,62.37,62.37"/><path clip-path="url(#X1)" d="M106,209.61c32.699,0,59.241-26.492,59.241-59.241,0-32.649-26.542-59.191-59.241-59.191s-59.241,26.542-59.241,59.191c-0.003,32.75,26.54,59.24,59.241,59.24"/></g>
<g fill="#FFF">
<path clip-path="url(#X1)" d="M144.8,146.13c-0.050781-5.7012-2.2207-8.8301-6.1055-8.8301-4.29,0-6.5098,4.541-6.5098,13.473,0,4.0371,0.35352,8.5283,2.7246,10.95,1.0596,1.0596,2.4727,1.6152,4.1895,1.6152,3.3301,0,5.7012-2.9268,6.2559-7.7207l6.0059,0.40332c-0.75684,8.2754-5.501,13.17-12.666,13.17-3.2803,0-6.1064-1.1094-8.377-3.3799-3.2793-3.2803-5.1973-8.9316-5.1973-15.441,0-6.46,1.918-12.061,5.1973-15.391,2.3213-2.2705,5.1973-3.4316,8.6289-3.4316,7.3672,0,11.556,4.6934,12.414,14.028l-6.55,0.55z"/><polygon clip-path="url(#X1)" points="104.38,141.95,104.38,147.55,112.36,147.55,112.36,152.19,104.38,152.19,104.38,161.83,99.488,161.83,99.488,137.15,114.37,137.15,114.37,141.95"/><path clip-path="url(#X1)" d="M80.312,146.13c-0.10059-5.7012-2.2197-8.8301-6.106-8.8301-4.2881,0-6.5088,4.541-6.5088,13.473,0,4.0371,0.35303,8.5283,2.7246,10.95,1.0601,1.0596,2.4727,1.6152,4.1885,1.6152,3.3301,0,5.7017-2.9268,6.2573-7.7207l6.0049,0.40332c-0.80762,8.2754-5.5005,13.17-12.667,13.17-3.2793,0-6.105-1.1094-8.376-3.3799-3.2803-3.2803-5.1973-8.9316-5.1973-15.441,0-6.46,1.917-12.061,5.1973-15.391,2.3213-2.2705,5.1973-3.4316,8.6289-3.4316,7.3677,0,11.505,4.6934,12.414,14.028l-6.56,0.55z"/><path clip-path="url(#X1)" d="M180.98,175.91v-1.918c0.4043-0.10059,0.75684-0.30273,1.1104-0.65527,0.55469-0.50488,0.70703-1.2109,0.9082-1.918l0.90918-3.2793-2.9277-0.80762v-1.9688l4.8945,1.3125-1.4629,5.5508c-0.30273,1.1104-0.60547,2.0186-1.5137,2.8262-0.55,0.46-1.21,0.76-1.92,0.87m0-15.95v-1.6143l6.0557,0.40332-0.10059,1.5645-5.96-0.35zm0-8.58v-1.917l6.6104,0.40332-0.15137,1.918-6.46-0.4zm0-12.36v-1.917l5.3496-0.70703,0.25195,1.9189-5.6,0.71zm0-6.51v-2.2207c1.2109-0.95898,1.9678-2.2705,1.4131-4.0366-0.30273-0.85791-0.80762-1.4634-1.4131-1.8667v-2.0693c1.3125,0.65625,2.3721,1.8169,2.9775,3.583,0.91,2.89-0.5,5.21-2.98,6.62m0-10.19v2.0693c-1.6143-1.0093-3.9863-0.75732-5.7529-0.15186-0.25195,0.050781-0.55469,0.15186-0.80664,0.25244v-2.1699c0.10059-0.050781,0.20117-0.10059,0.30273-0.15088,2.18-0.66,4.45-0.71,6.26,0.15m0,7.97v2.2207l-0.85742-1.6143c0.31-0.16,0.56-0.36,0.86-0.61m0,6.81v1.917l-6.5596,0.80762v-1.917l6.56-0.81zm0,12.36v1.917l-3.0781-0.20117c-0.9082-0.050781-2.1699-0.10156-2.9775,0.40332-0.20117,0.10059-0.35254,0.25293-0.50391,0.40332v-2.2705c1.1094-0.50488,2.3213-0.50488,3.583-0.40332l2.98,0.15zm0,8.89v1.6143l-3.6328-0.20117c-1.0596-0.10156-2.0186-0.20215-2.9268-0.60547v-1.9678l0.050781,0.049805c0.80664,0.80762,1.9678,0.8584,2.9766,0.9082l3.53,0.21zm0,7.01v1.9688l-1.8672-0.50488-0.75586,2.8262c-0.25293,0.9082-0.55566,1.917-0.15234,2.8252,0.25195,0.70703,0.95898,1.2617,1.665,1.4131,0.4043,0.15137,0.75684,0.15137,1.1104,0.10059v1.918c-0.4541,0.050781-0.9082,0-1.3623-0.10156-1.665-0.4541-2.6748-1.7656-2.624-3.4814-0.55469,1.0596-1.5137,1.8174-2.5732,2.0693v-1.8164c0.40332-0.10156,0.80664-0.25293,1.1602-0.50488,0.75684-0.55469,1.0098-1.4639,1.2109-2.3213l0.9082-3.3301-3.2793-0.8584v-2.0176l6.56,1.8zm-6.56-31.08v-1.7148c0.25195,0,0.55469,0,0.85742-0.050781l0.15137,1.7656c-0.35,0.04-0.7,0.04-1.01-0.01m0-11.96v2.1699c-0.95898,0.40332-1.918,0.9082-2.624,1.5137-1.0596,0.95898-1.7666,2.4219-1.2617,3.9355,0.60547,1.918,2.1699,2.5742,3.8857,2.625v1.7148c-2.5234-0.049805-4.542-1.1602-5.3994-3.835-1.32-4.09,1.91-6.96,5.39-8.12m0,15.59v1.917l-1.2617,0.15137,0.9082,7.0146-1.7158,0.20215-1.0596-8.8809,3.13-0.4zm0,11.81v2.2705c-0.60547,0.65625-0.80762,1.665-0.8584,2.4727-0.049805,0.95898,0.15234,2.0186,0.8584,2.7256v1.9678c-0.4043-0.20215-0.75684-0.4541-1.1104-0.75684-1.1611-1.1104-1.5137-2.624-1.4131-4.1885,0.10059-1.4629,0.50488-3.0273,1.7158-3.9863,0.25-0.2,0.5-0.35,0.8-0.5m0,13.82v2.0176l-2.1191-0.60547-0.95898,3.583c-0.20215,0.80664-0.4043,1.7666-0.050781,2.5225,0.30273,0.75781,0.95898,1.2617,1.7158,1.4639,0.4541,0.10156,0.95898,0.15137,1.4131,0.050781v1.8164c-0.60547,0.15137-1.3125,0.10059-1.9688-0.050781-1.2607-0.35352-2.2197-1.0596-2.7246-2.2705-0.60547-1.3623-0.35352-2.5234,0.050781-3.835l1.4629-5.5508,3.18,0.87zm-12.92,35.83v-5.5498c0.15234-0.050781,0.30371-0.050781,0.50488-0.050781,1.5645,0,2.8262,1.2617,2.8262,2.8262s-1.2617,2.8262-2.8262,2.8262c-0.19-0.01-0.34-0.01-0.5-0.06m0-85.33v-3.0273l3.8359,5.7021-1.4131,0.95898-2.43-3.63zm0-3.23v-2.271l9.9922-6.7617,1.1104,1.5645-11.1,7.47zm0-15.289v-2.624l1.2119-1.1606,1.3115,1.3628-2.52,2.422zm0-2.624v2.624l-7.3164,6.8633,4.8447,5.0962-1.2109,1.1606-4.1377-4.3901v-3.9868l7.83-7.363zm0,15.643l-2.5732,1.7158,2.5732,3.7847v-3.0273l-0.10059-0.15137,0.10059-0.050781v-2.27zm0,85.28v5.5498c-1.3115-0.25195-2.3213-1.4121-2.3213-2.7744,0-1.42,1.01-2.53,2.32-2.78m-7.82-102.28v-6.9639l0.20117-0.20166,1.7656,1.312-1.97,5.854zm0-6.964v6.9639l-1.1104,3.2793v-5.7515l0.85742-2.5229-0.85742,0.65625v-1.8679l1.11-0.75712zm0,15.689v3.9868l-1.1104-1.2114v-1.7153l1.11-1.06zm-1.11-14.932v1.8677l-2.2715,1.564v-1.8164l2.27-1.616zm0,3.734v5.752l-2.0693,6.0054-0.20215-0.20166v-5.147l0.10156-0.30273-0.10156-0.050781v-1.8164l0.60645,0.4541,1.66-4.695zm0,12.258v1.7153l-0.9082-0.90771,0.91-0.81zm-2.27-14.377v1.8164l-3.1279,2.2202,3.1279,2.3213v1.8164l-4.3896-3.2798-2.9775,2.1196v-1.8154l7.37-5.1976zm0,8.528v5.147l-1.3623-0.95898,1.36-4.19zm-7.36,124.84v-2.7764l3.7344,3.9365-1.7666,0.80762-1.96-1.97zm0-14.58v-1.3623l0.75684,0.55469-0.76,0.81zm0-121.46v-2.5732c0.20215-0.55518,0.20215-1.0596,0-1.5645v-2.4727c0.60547,0.40332,1.1611,0.80762,1.5645,1.5137,0.60547,1.0601,0.65625,2.271,0.15137,3.3813-0.4,0.806-1.01,1.412-1.71,1.715m0-6.611v2.4727c-0.049805-0.15186-0.15137-0.30322-0.25195-0.4541-0.4043-0.65576-1.0596-0.95898-1.7158-1.2617l-3.0781-1.5132-1.3125,2.6743v-4.3398l0.25293-0.55518,5.1475,2.5229c0.35,0.151,0.65,0.303,0.96,0.454m0,4.037v2.5732c-0.65625,0.30273-1.4131,0.35352-2.2197,0.20215v0.050293c1.5137,1.1606,2.0186,3.0781,1.1602,4.7939-0.55469,1.1602-1.4629,1.9673-2.7246,2.27-0.95898,0.20215-1.7666,0.05127-2.5742-0.25146v-1.7163c0.60547,0.20166,1.2617,0.35352,1.8682,0.20166,0.80664-0.15088,1.4121-0.65576,1.7656-1.4121,0.35352-0.80762,0.40332-1.8169,0-2.5737-0.40332-0.85791-1.2617-1.2617-2.0186-1.665l-1.6152-0.75732v-1.6147l1.7666,0.85791c0.85742,0.40332,1.8164,0.85791,2.7754,0.65576,0.75684-0.10059,1.4131-0.70605,1.7158-1.3623,0.03-0.051,0.03-0.152,0.08-0.253m0,10.446v1.8169l-0.76,0.604-1.3115-0.9585,2.07-1.463zm0,112.23v1.3623l-2.6748,3.0791-0.75684-0.60645,2.877-4.2891,0.55,0.46zm0,13.17v2.7725l-1.3115-1.3633-5.0469,2.4229v-1.6152l4.0371-1.917-4.0371-4.2891v-2.6748l6.36,6.67zm-6.36,8.73v-4.6934l0.65625,4.3906-0.66,0.3zm0-151.03v4.3398l-0.85742,1.7661,0.85742,0.45361v1.6147l-1.5137-0.75684-2.4219,5.0459,3.3301,1.6152c0.20215,0.10107,0.4043,0.20166,0.60547,0.30225v1.7163c-0.40332-0.10156-0.80664-0.30322-1.2109-0.50488l-5.1465-2.4727,6.35-13.119zm0,135.64v2.6748l-1.2109-1.2617,1.0605,7.5684,0.15039-0.10059v1.6152h-0.049805l0.049805,0.20117v4.6934l-0.75684,0.35352-2.1191-15.795,1.9678-0.95898,0.91,1.02zm-26.8,16.65v-1.4639l2.3223-0.10059-2.3223-6.207v-3.0273h0.80762l5.7021,14.886-1.917,0.10156-1.7666-4.3398-2.82,0.15zm0-147.4v-7.5186c0.45508,1.0596,0.65625,2.2705,0.70703,3.4814,0,1.313-0.2,2.726-0.71,4.038m6.21,4.592l2.2705-13.321-4.2881-0.75732,0.30176-1.6147,10.345,1.7158-0.25195,1.665-4.2393-0.70605-2.2705,13.321-1.87-0.303zm13.82,143.87l-10.747-10.95,3.2285,12.817-1.5137,0.40332-3.7344-14.685,2.3213-0.60449,9.9912,10.243-3.0273-12.01,1.5645-0.40332,3.6836,14.734-1.76,0.45zm-20.03-155.98v7.5186c-0.85742,2.2202-2.5732,3.9863-5.2979,4.0371h-0.20166v-1.5142h0.15088c3.2305-0.10059,4.1387-3.835,4.0371-6.4082,0-1.3628-0.25195-2.9272-0.95898-4.1382-0.70605-1.1606-1.8164-1.9678-3.229-1.9678v-1.5645c2.78-0.001,4.59,1.765,5.5,4.036m0,144.12v3.0273l-0.35254-0.95801-1.9678,7.417,2.3203-0.15137v1.4639l-2.7744,0.15137-1.0601,4.4404-1.6147,0.10059,4.0879-15.391,1.35-0.1zm-5.5-148.16v1.5645h-0.050781c-3.3809,0.10059-4.2388,3.7339-4.188,6.459,0.049805,2.5732,1.1602,6.0049,4.2388,6.0552v1.5142c-4.189,0-6.1567-3.7847-6.207-7.519-0.10107-3.7847,1.6655-7.9727,6.0557-8.0737h0.15223zm-7.87,156.28v-1.5645c0.9585,0.15234,1.7656,0.15234,2.624-0.50391,0.55469-0.4541,0.90771-1.1104,1.0093-1.8672,0.15088-0.8584-0.10156-1.6152-0.75684-2.2207-0.60596-0.55469-1.2114-0.65625-2.0186-0.75684l-0.85791-0.10059v-1.666l1.0596,0.15137c1.2617,0.15234,2.4219,0.50488,3.3306,1.3633,0.9082,0.9082,1.312,2.2705,1.1099,3.5322-0.20166,1.7656-1.5137,3.2295-3.3301,3.4814l2.0181,7.3672-1.9678-0.25195-1.8672-6.9131-0.355-0.05zm0-8.68v1.666l-2.8765-0.4043-0.75684,5.3496,3.5322,0.50391h0.10107v1.5645l-3.8354-0.50391-0.9082,6.5088-1.8672-0.25293,2.0693-15.036,4.541,0.6zm-7.771-129.98v-1.6147c0.4541,0.050781,0.95801,0.050781,1.4629-0.10059,3.1797-0.75684,3.2803-4.5923,2.6748-7.1152-0.35352-1.312-0.9082-2.7754-1.8672-3.7847-0.60547-0.70654-1.4126-1.1606-2.2705-1.312v-1.614c3.1787,0.20215,5.2983,3.0786,6.0557,6.1562,0.85742,3.583,0,8.1748-4.1885,9.1841-0.658,0.152-1.263,0.202-1.869,0.202m0-15.542v1.6147c-0.45459-0.050293-0.9082-0.050293-1.3623,0.050293-3.3311,0.80762-3.3813,4.5928-2.7251,7.2158,0.50439,2.1196,1.8667,4.6431,4.0874,5.0464v1.6147c-3.1792-0.20166-5.2988-3.0776-6.0557-6.207-0.85742-3.6836,0-8.124,4.2388-9.1836,0.656-0.151,1.262-0.201,1.817-0.151m-7.115,153.05v-1.5645l2.1694,0.75684,0.10107-7.6201-2.2705,3.0283v-2.4727l2.0684-2.7754,2.0688,0.70605-0.15137,15.945-1.8667-0.65527-0.050781-4.6426-2.068-0.71zm0-7.87v2.4727l-2.271,3.0781,2.271,0.75684v1.5645l-3.23-1.1104-2.1191,2.9775v-2.5234l5.349-7.22zm-5.349,1.62c0.60547-0.40332,1.1104-1.0088,1.4629-1.665,0.60596-1.1104,0.75684-2.624,0.30322-3.835-0.4043-0.8584-1.0093-1.5137-1.7661-2.0186v2.4219c0.25195,0.70703,0.20166,1.4131,0,2.0693v3.0255zm0-126.51v-3.2798l1.2109,2.7251-1.211,0.555zm0-7.872v-1.6646l3.2295-1.4634,0.60547,1.4131-3.834,1.715zm0-6.963v-1.7661l1.7153-0.80713,0.70654,1.5137-2.422,1.059zm0-1.766v1.7658l-3.583,1.6147v-1.8164l3.583-1.564zm0,7.065v1.6646l-1.7158,0.75732,1.7158,3.835v3.2798l-0.50488,0.25293-3.0781-6.7622v-4.6426l1.2114,2.6748,2.372-1.06zm0,128.53v2.4219c-0.050781,0-0.050781-0.049805-0.050781-0.049805-0.35303-0.75684-0.85742-1.1104-1.564-1.4639l-1.9683-1.0596v-1.77l2.5732,1.3115c0.354,0.2,0.657,0.4,1.01,0.61m0,4.49v3.0273c-0.40381,0.25293-0.80762,0.45508-1.2114,0.55566-0.80713,0.25195-1.6147,0.20117-2.3716,0v-1.666c0.50439,0.15234,1.0596,0.20215,1.6147,0.050781,0.75684-0.25195,1.3628-0.80664,1.7158-1.4629,0.101-0.16,0.151-0.36,0.252-0.51m0,8.63v2.5234l-0.55518,0.75684-1.514-0.51,2.069-2.77zm-3.583-147.15v1.8164l-0.75684,0.35303,0.75684,1.7158v4.6426l-3.1787-7.0645,3.179-1.464zm0,132.11v1.7656l-0.95898-0.50391-2.7246,5.1465,2.8262,1.5137c0.30273,0.15137,0.60498,0.30273,0.85742,0.40332v1.666c-0.4541-0.15137-0.95898-0.35352-1.4126-0.60547l-3.0278-1.5645-2.876,5.4492-1.6655-0.9082,7.0645-13.422,1.92,1.05zm-16.652-101.38v-4.7432c0.50488,0.65576,0.80811,1.4629,0.75684,2.3213,0,0.96-0.303,1.72-0.757,2.42m0-11.502l3.1289,7.8716,1.2109-1.0088-1.7656-4.2383,4.3389-3.5825,3.9868,2.4214,1.5137-1.2617-12.414-7.8213v2.1699l5.6519,3.6333-3.5825,2.9775-2.0693-5.1475v3.9877zm0-7.62v2.1699l-0.75684-0.50488,0.75684,1.9683v3.9863l-1.0093-2.4727v-5.8032l1.009,0.657zm0,14.382v4.7432c-0.25195,0.35303-0.55518,0.70654-0.85742,1.1104l-0.15186,0.20166v-7.0649c0.10107,0.050781,0.15186,0.15186,0.25244,0.20215,0.253,0.25,0.555,0.51,0.757,0.81m-1.009-15.038v5.8032l-0.9082-2.3213v-2.8257l0.80762-0.70654,0.1,0.051zm0,14.028v7.0649l-0.9082,1.1099v-2.5732c0.45459-0.55469,0.80762-1.2617,0.80762-1.9678,0.050293-0.75732-0.25244-1.4131-0.80762-1.918v-2.2197c0.303,0.16,0.605,0.31,0.908,0.51m-0.909-13.372v2.8257l-0.85791-2.1191,0.858-0.707zm0,12.872v2.2197c-0.050293-0.050293-0.10059-0.10059-0.15088-0.10059-0.70703-0.60547-1.6655-0.85791-2.5234-0.65625-0.9082,0.20215-1.5142,0.9082-2.0688,1.6147l-0.9082,1.1099v-2.3213c0.40381-0.55469,0.75684-1.1602,0.75684-1.8159,0.050293-0.70654-0.25244-1.4131-0.75684-1.8677v-2.27c0.30273,0.10059,0.60547,0.30225,0.85791,0.50391,1.312,1.1104,1.665,2.7251,0.9082,4.2393l0.050293,0.050293c1.161-0.96,2.574-1.158,3.835-0.7m0,6.1v2.5732l-2.5229,3.0786-3.1284-2.5234v-2.4722l3.0781,2.5225,2.3213-2.876c0.102-0.1,0.152-0.2,0.252-0.3m-5.651,92.95v-5.6523h0.15137c1.564,0,2.8257,1.2617,2.8257,2.8262s-1.2617,2.8262-2.8257,2.8262h-0.15091zm0-82.7v-2.2202l1.2612,0.75635-1.0093,1.6655-0.252-0.21zm-7.721,48.19c0.70605,0.65625,1.2109,1.5146,1.5142,2.624,0.65576,2.2715-0.10107,4.1377-1.5142,5.5518v-3.4316c0.15137-0.50488,0.15137-1.0596,0-1.6152v-3.1247zm7.721-68.631v2.27c-0.050781-0.050293-0.10107-0.10059-0.15137-0.15088-0.70654-0.55518-1.4126-0.70654-2.271-0.4043-0.70605,0.25244-1.1602,0.80762-1.6152,1.3633l-2.1689,2.6743,3.8345,3.1284,1.8672-2.271c0.15186-0.20166,0.35352-0.40332,0.50488-0.65625v2.3213l-1.2617,1.5649,1.2617,1.0093v2.4722l-7.7207-6.3076v-1.905l2.7251-3.2798c0.75684-0.9082,1.3623-1.6152,2.5229-1.9683,0.857-0.252,1.715-0.202,2.472,0.152m0,18.221v2.2202l-7.7207-4.6431v-2.2197l7.721,4.64zm0,79.27v5.6523c-1.5142-0.10156-2.6743-1.3125-2.6743-2.8262s1.16-2.77,2.674-2.82m-7.721-56.97v-1.8672l0.55469-0.15137-0.30273,1.9678-0.252,0.05zm0-5.1v-1.9678l2.0181,0.60547-0.50391,1.8164-1.514-0.46zm0-9.23v-2.0688l5.0464,2.2207-0.80811,1.7153-4.238-1.87zm-4.743,40.97c1.8672-0.050781,3.5835,0.35254,4.7437,1.4629v3.1289-0.049805c-0.60547-2.2715-2.5732-2.8262-4.6426-2.7764l-0.101-1.76zm4.743,9.64c-1.1602,1.21-2.8257,2.0684-4.4912,2.5225-1.312,0.35352-2.6743,0.50488-3.936,0.35352v-2.0125c1.1606,0.10156,2.4727-0.099609,3.5327-0.40234,1.1602-0.30273,2.5229-0.8584,3.4312-1.666,0.70605-0.60547,1.2612-1.3623,1.4634-2.2197v3.4311zm0-71.7v1.9175l-0.9082-0.75684,0.908-1.16zm0,8.47v2.2197l-4.9956-3.0273,0.95898-1.6143,4.037,2.42zm0,10.55v2.0688l-8.0737-3.5825-0.35352,0.70605v-4.0874l1.3125-2.9766,1.5137,0.65527-1.7158,3.9365,7.318,3.27zm0,9.33v1.9678l-8.4272-2.5234v-1.9678l8.427,2.52zm0,5.2v1.8672l-6.6606,1.7656-0.60596,4.1895,6.5093,0.9082-0.25195,1.917-7.418-1.1104v-4.3896l0.15137-1.1104c0.15186-0.80762,0.20215-1.5137-0.15137-2.2207v-2.6748c0.8584,0.60645,1.4634,1.5146,1.6152,2.625l6.813-1.79zm-8.427,26.14v-2.0176h0.40381c2.5737-0.15234,6.0552-1.4131,5.854-4.6426-0.20215-3.0781-3.6841-3.9365-6.2578-3.8359v-1.9668c3.583-0.050781,7.519,1.6143,7.7715,5.7012,0.30273,4.3398-3.4819,6.5098-7.2666,6.7119-0.201,0.06-0.352,0.06-0.504,0.06m0,14.89c-2.3716-0.30273-4.3901-1.666-5.1465-4.4404-0.80762-2.9268,0.70605-5.1982,3.2295-6.5098l0.80713,1.6143c-1.7163,1.0098-3.0781,2.3721-2.4727,4.542,0.50439,1.8672,1.9678,2.5732,3.5825,2.7744v2.027zm0-60.46v4.0874l-1.4126,3.2295-1.5137-0.65527,2.927-6.66zm0,11.71v1.9678l-4.6426-1.3613,0.556-1.82,4.087,1.21zm0,6.86v2.6748c-0.049805-0.15137-0.15088-0.30273-0.30273-0.4541-0.4541-0.60547-1.1099-0.95898-1.8667-1.0596-0.85791-0.15137-1.6147,0.10059-2.2207,0.75684-0.55518,0.55566-0.65576,1.2119-0.75635,2.0186l-0.55518,3.7344,5.3486,0.75684,0.35303-2.4219v4.3896l-7.6196-1.1104,0.85791-5.6006c0.15137-1.2109,0.50439-2.3721,1.4131-3.2803,0.9082-0.9082,2.2202-1.3115,3.4819-1.1104,0.706,0.1,1.362,0.35,1.867,0.7m0,14.54v1.9668h-0.30273c-1.3623,0.10156-2.9263,0.4043-4.0874,1.1611-1.1602,0.75684-1.9175,1.9678-1.8164,3.3809,0.15137,3.2295,3.5327,4.0371,6.2065,3.9365v2.0176c-3.6328,0.050781-7.5186-1.6143-7.771-5.8027-0.050781,0-0.050781-0.050781-0.050781-0.10059v-0.55469c0.15186-3.8359,3.7344-5.8037,7.2671-6.0049h0.55414z"/><path clip-path="url(#X1)" d="M93.635,97.994c-9.9912,5.8032-19.932,22.657-20.941,24.373-1.0601,1.7158-9.9917-6.6611-8.8315-8.3765,4.3398-6.5601,13.12-13.019,20.639-15.744,6.762-2.421,11.556-1.967,9.134-0.252"/><path clip-path="url(#X1)" d="M98.328,101.27c-5.9038,8.1245-10.345,25.281-10.85,27.199-0.50439,1.9678-12.414-2.4727-11.656-4.5918,0.80762-2.1699,3.5327-7.3169,7.8721-13.12,2.5732-3.4814,7.8218-9.4868,11.959-11.505,2.119-1.059,4.747-0.756,2.675,2.015"/><path clip-path="url(#X1)" d="M104.84,130.54c0,2.2197-14.634,0.85742-14.281-1.666,0.35352-2.4722,4.2393-20.083,10.547-27.854,0.40381-0.50488,0.60547-0.75684,1.1602-1.1606,0.90869-0.70654,2.3218-0.050781,2.271,1.1606,0.3,10.3,0.3,27.25,0.3,29.52"/><path clip-path="url(#X1)" d="M93.635,202.35c-9.9912-5.8535-19.932-22.657-20.941-24.372-1.0601-1.7158-9.9917,6.6104-8.8315,8.3252,4.3398,6.5605,13.12,13.02,20.639,15.744,6.762,2.47,11.556,1.96,9.134,0.3"/><path clip-path="url(#X1)" d="M98.328,199.07c-5.9038-8.125-10.345-25.332-10.85-27.3-0.50439-1.917-12.414,2.5732-11.656,4.6924,0.80762,2.1201,3.5327,7.3174,7.8721,13.12,2.5732,3.4824,7.8218,9.4873,11.959,11.506,2.119,1.06,4.747,0.75,2.675-2.02"/><path clip-path="url(#X1)" d="M104.84,169.75c0-2.2705-14.634-0.85742-14.281,1.6152,0.35352,2.5225,4.2393,20.184,10.547,27.955,0.40381,0.4541,0.60547,0.75684,1.1602,1.1602,0.90869,0.65625,2.3721,0.20215,2.271-0.60547,0.3-10.29,0.3-27.9,0.3-30.12"/><path clip-path="url(#X1)" d="M118.51,202.35c9.9912-5.8535,19.933-22.657,20.941-24.372,1.0596-1.7158,9.9912,6.6104,8.8809,8.3252-4.3398,6.5605-13.171,13.02-20.639,15.744-6.81,2.47-11.6,1.96-9.18,0.3"/><path clip-path="url(#X1)" d="M113.82,199.07c5.9541-8.125,10.345-25.332,10.85-27.3,0.50488-1.917,12.413,2.5732,11.656,4.6924-0.75684,2.1201-3.5322,7.3174-7.8711,13.12-2.5742,3.4824-7.8223,9.4873-11.96,11.506-2.13,1.06-4.75,0.75-2.68-2.02"/><path clip-path="url(#X1)" d="M107.31,169.75c0-2.2705,14.634-0.85742,14.28,1.6152-0.35352,2.5225-4.2393,20.184-10.547,27.955-0.35254,0.4541-0.60547,0.75684-1.1104,1.1602-0.95801,0.65625-2.3711,0.20215-2.3203-0.60547-0.3-10.29-0.3-27.9-0.3-30.12"/><path clip-path="url(#X1)" d="M118.26,97.994c9.9414,5.8032,19.933,22.657,20.941,24.373,1.0596,1.7158,9.9912-6.6611,8.8311-8.3765-4.3398-6.5601-13.12-13.019-20.639-15.744-6.76-2.421-11.55-1.967-9.13-0.252"/><path clip-path="url(#X1)" d="M113.57,101.27c5.9033,8.1245,10.344,25.281,10.849,27.199,0.50488,1.9678,12.414-2.4727,11.657-4.5918-0.80762-2.1699-3.5322-7.3169-7.8721-13.12-2.5732-3.4814-7.8213-9.4868-11.959-11.505-2.13-1.059-4.75-0.756-2.68,2.015"/><path clip-path="url(#X1)" d="M107.06,130.54c0,2.2197,14.634,0.85742,14.28-1.666-0.35254-2.4722-4.2383-20.083-10.546-27.854-0.40332-0.50488-0.60547-0.75684-1.1611-1.1606-0.9082-0.70654-2.3203-0.050781-2.2705,1.1606-0.3,10.3-0.3,27.25-0.3,29.52"/><polygon fill="#FAD716" clip-path="url(#X1)" points="106,9.687,110.89,23.564,125.58,23.917,113.87,32.849,118.06,46.928,106,38.602,93.938,46.928,98.125,32.849,86.418,23.917,101.1,23.564"/></g>
</svg>